<svg width="33" height="32" viewBox="0 0 33 32" fill="none" xmlns="http://www.w3.org/2000/svg">
<g id="akar-icons:backspace">
<g id="Group">
<path id="Vector" d="M23.5 20L15.5 12M23.5 12L15.5 20" stroke="#2D2D2D" stroke-width="2" stroke-linecap="round"/>
<path id="Vector_2" d="M10.7 6.40001C10.9484 6.06882 11.2704 5.80001 11.6407 5.61487C12.011 5.42973 12.4193 5.33334 12.8333 5.33334H27.5C28.2072 5.33334 28.8855 5.61429 29.3856 6.11439C29.8857 6.61449 30.1666 7.29277 30.1666 8.00001V24C30.1666 24.7073 29.8857 25.3855 29.3856 25.8856C28.8855 26.3857 28.2072 26.6667 27.5 26.6667H12.8333C12.4193 26.6667 12.011 26.5703 11.6407 26.3852C11.2704 26.2 10.9484 25.9312 10.7 25.6L4.69996 17.6C4.35377 17.1384 4.16663 16.577 4.16663 16C4.16663 15.423 4.35377 14.8616 4.69996 14.4L10.7 6.40001Z" stroke="#2D2D2D" stroke-width="2" stroke-linecap="round" stroke-linejoin="round"/>
</g>
</g>
</svg>
